<svg width="31" height="31" viewBox="0 0 31 31" fill="none" xmlns="http://www.w3.org/2000/svg">
<circle cx="15.6193" cy="15.3984" r="15" transform="rotate(-180 15.6193 15.3984)" fill="#00AC41"/>
<mask id="path-2-outside-1" maskUnits="userSpaceOnUse" x="8.31946" y="9.39844" width="15" height="12" fill="black">
<rect fill="white" x="8.31946" y="9.39844" width="15" height="12"/>
<path fill-rule="evenodd" clip-rule="evenodd" d="M16.6898 20.1356C16.6901 20.281 16.8082 20.3987 16.9536 20.3984C17.0233 20.3984 17.0901 20.3708 17.1394 20.3216L21.8721 15.5889C21.9234 15.5409 21.9555 15.4725 21.9555 15.3967C21.9555 15.3179 21.9209 15.2472 21.866 15.1989L17.1394 10.4723C17.0374 10.3738 16.8757 10.3738 16.7737 10.4723C16.6691 10.5733 16.6662 10.74 16.7672 10.8446L21.0566 15.1334L9.58272 15.1334C9.43733 15.1334 9.31946 15.2513 9.31946 15.3967C9.31946 15.5421 9.43733 15.6599 9.58272 15.6599L21.0566 15.6599L16.7672 19.9488C16.7176 19.9983 16.6897 20.0656 16.6898 20.1356Z"/>
</mask>
<path fill-rule="evenodd" clip-rule="evenodd" d="M16.6898 20.1356C16.6901 20.281 16.8082 20.3987 16.9536 20.3984C17.0233 20.3984 17.0901 20.3708 17.1394 20.3216L21.8721 15.5889C21.9234 15.5409 21.9555 15.4725 21.9555 15.3967C21.9555 15.3179 21.9209 15.2472 21.866 15.1989L17.1394 10.4723C17.0374 10.3738 16.8757 10.3738 16.7737 10.4723C16.6691 10.5733 16.6662 10.74 16.7672 10.8446L21.0566 15.1334L9.58272 15.1334C9.43733 15.1334 9.31946 15.2513 9.31946 15.3967C9.31946 15.5421 9.43733 15.6599 9.58272 15.6599L21.0566 15.6599L16.7672 19.9488C16.7176 19.9983 16.6897 20.0656 16.6898 20.1356Z" fill="white"/>
<path d="M16.9536 20.3984L16.9536 19.9984L16.9528 19.9984L16.9536 20.3984ZM16.6898 20.1356L16.2898 20.1364L16.2898 20.1364L16.6898 20.1356ZM17.1394 20.3216L17.422 20.6047L17.4222 20.6044L17.1394 20.3216ZM21.8721 15.5889L21.5986 15.2967L21.5892 15.3061L21.8721 15.5889ZM21.9555 15.3967L22.3555 15.3968L22.3555 15.3967L21.9555 15.3967ZM21.866 15.1989L21.5832 15.4818L21.5922 15.4908L21.6019 15.4993L21.866 15.1989ZM17.1394 10.4723L17.4223 10.1894L17.4173 10.1846L17.1394 10.4723ZM16.7737 10.4723L16.4958 10.1846L16.4957 10.1846L16.7737 10.4723ZM16.7672 10.8446L16.4795 11.1225L16.4844 11.1274L16.7672 10.8446ZM21.0566 15.1334L21.0566 15.5334L22.0223 15.5334L21.3394 14.8506L21.0566 15.1334ZM21.0566 15.6599L21.3394 15.9428L22.0224 15.2599L21.0566 15.2599L21.0566 15.6599ZM16.7672 19.9488L17.0497 20.232L17.05 20.2317L16.7672 19.9488ZM16.9528 19.9984C17.0284 19.9983 17.0897 20.0595 17.0898 20.1349L16.2898 20.1364C16.2905 20.5026 16.5879 20.7991 16.9543 20.7984L16.9528 19.9984ZM16.8568 20.0385C16.8826 20.0128 16.9173 19.9984 16.9536 19.9984L16.9536 20.7984C17.1292 20.7984 17.2976 20.7288 17.422 20.6047L16.8568 20.0385ZM21.5892 15.3061L16.8566 20.0387L17.4222 20.6044L22.1549 15.8718L21.5892 15.3061ZM21.5555 15.3966C21.5555 15.3573 21.5727 15.3213 21.5988 15.2969L22.1454 15.881C22.2741 15.7605 22.3555 15.5878 22.3555 15.3968L21.5555 15.3966ZM21.6019 15.4993C21.574 15.4748 21.5555 15.4377 21.5555 15.3967L22.3555 15.3967C22.3555 15.1981 22.2677 15.0195 22.1302 14.8986L21.6019 15.4993ZM16.8566 10.7552L21.5832 15.4818L22.1489 14.9161L17.4223 10.1895L16.8566 10.7552ZM17.0515 10.7601C16.9986 10.8112 16.9145 10.8113 16.8615 10.76L17.4173 10.1846C17.1603 9.93636 16.7528 9.93641 16.4958 10.1846L17.0515 10.7601ZM17.0549 10.5667C17.1074 10.621 17.1058 10.7076 17.0516 10.76L16.4957 10.1846C16.2324 10.4391 16.2249 10.859 16.4795 11.1225L17.0549 10.5667ZM21.3394 14.8506L17.05 10.5617L16.4844 11.1274L20.7737 15.4163L21.3394 14.8506ZM9.58272 15.5334L21.0566 15.5334L21.0566 14.7334L9.58272 14.7334L9.58272 15.5334ZM9.71946 15.3967C9.71946 15.4722 9.65824 15.5334 9.58272 15.5334L9.58272 14.7334C9.21641 14.7334 8.91946 15.0304 8.91946 15.3967L9.71946 15.3967ZM9.58272 15.2599C9.65819 15.2599 9.71946 15.3211 9.71946 15.3967L8.91946 15.3967C8.91946 15.763 9.21646 16.0599 9.58272 16.0599L9.58272 15.2599ZM21.0566 15.2599L9.58272 15.2599L9.58272 16.0599L21.0566 16.0599L21.0566 15.2599ZM17.05 20.2317L21.3394 15.9428L20.7738 15.3771L16.4844 19.6659L17.05 20.2317ZM17.0898 20.1349C17.0899 20.1714 17.0754 20.2063 17.0497 20.232L16.4847 19.6656C16.3597 19.7903 16.2895 19.9597 16.2898 20.1364L17.0898 20.1349Z" fill="white" mask="url(#path-2-outside-1)"/>
</svg>
