<svg width="71" height="66" viewBox="0 0 71 66" fill="none" xmlns="http://www.w3.org/2000/svg">
<path d="M61.8253 27.7858C61.2596 27.7858 60.8013 28.2441 60.8013 28.8098V48.2187C60.8013 50.7567 58.7365 52.8215 56.1986 52.8215H19.9845C19.3357 52.8215 18.7229 53.0713 18.2588 53.5252L8.1495 63.4144C8.13352 63.43 8.12301 63.4403 8.08888 63.4258C8.05474 63.4117 8.05474 63.3968 8.05474 63.3745V54.6676C8.05474 53.7238 7.35241 52.908 6.42124 52.7701C4.18617 52.4385 2.50078 50.4819 2.50078 48.2187V17.5248C2.50078 14.9869 4.5656 12.922 7.10351 12.922H41.0036C41.5693 12.922 42.0276 12.4637 42.0276 11.898C42.0276 11.3324 41.5693 10.874 41.0036 10.874H7.10351C3.43632 10.874 0.452759 13.8574 0.452759 17.5248V48.2189C0.452759 51.4508 2.83201 54.2502 6.00658 54.778V63.3746C6.00658 64.2235 6.51217 64.9847 7.29465 65.3139C8.07645 65.6426 8.97417 65.4726 9.58161 64.8786L19.6909 54.9895C19.77 54.9122 19.8741 54.8696 19.9845 54.8696H56.1986C59.8657 54.8696 62.8493 51.8861 62.8493 48.2189V28.8098C62.8493 28.2441 62.3909 27.7858 61.8253 27.7858Z" fill="#4D434B"/>
<path d="M12.5692 25.7799C12.0036 25.7799 11.5452 26.2383 11.5452 26.8039V41.1567C11.5452 41.6555 11.9045 42.0818 12.3962 42.1661C12.6911 42.2167 17.2906 42.1825 17.605 42.1807C18.1705 42.1776 18.6264 41.7167 18.6233 41.151C18.6201 40.5874 18.1623 40.1327 17.5994 40.1327H17.5935C16.3937 40.1394 14.662 40.1461 13.5932 40.1446V26.8039C13.5932 26.2384 13.1347 25.7799 12.5692 25.7799Z" fill="#4D434B"/>
<path d="M22.4768 26.8039V41.1687C22.4768 41.7344 22.9353 42.1928 23.5008 42.1928C24.0663 42.1928 24.5248 41.7344 24.5248 41.1687V26.8039C24.5248 26.2383 24.0663 25.7799 23.5008 25.7799C22.9353 25.7799 22.4768 26.2384 22.4768 26.8039Z" fill="#4D434B"/>
<path d="M44.7354 42.1274H50.733C51.2987 42.1274 51.757 41.669 51.757 41.1033C51.757 40.5377 51.2987 40.0793 50.733 40.0793H45.7594V35.0105H50.2908C50.8564 35.0105 51.3148 34.5521 51.3148 33.9865C51.3148 33.4208 50.8564 32.9625 50.2908 32.9625H45.7594V27.8936H50.733C51.2987 27.8936 51.757 27.4353 51.757 26.8696C51.757 26.3039 51.2987 25.8456 50.733 25.8456H44.7354C44.1698 25.8456 43.7114 26.3039 43.7114 26.8696V41.1033C43.7114 41.6689 44.1698 42.1274 44.7354 42.1274Z" fill="#4D434B"/>
<path d="M38.5321 26.5076L34.492 38.6687L30.2571 26.4683C30.0717 25.934 29.488 25.651 28.9539 25.8367C28.4196 26.0221 28.1368 26.6055 28.3223 27.1397L33.2362 41.2962C33.4272 41.8336 33.9368 42.1928 34.5066 42.1928H34.5159C35.0892 42.189 35.5985 41.8216 35.7853 41.2719L40.4756 27.1533C40.6541 26.6165 40.3634 26.0369 39.8267 25.8588C39.2904 25.6803 38.7104 25.9707 38.5321 26.5076Z" fill="#4D434B"/>
<path d="M65.7671 10.9762C63.5698 8.77906 60.6487 7.56909 57.5416 7.56909C54.4344 7.56909 51.5133 8.77906 49.3162 10.9763C48.9162 11.3762 48.9162 12.0245 49.3163 12.4244C49.7162 12.8243 50.3645 12.8242 50.7644 12.4244C52.5746 10.614 54.9815 9.61698 57.5416 9.61698C60.1017 9.61698 62.5086 10.614 64.3189 12.4244C64.7189 12.8242 65.3672 12.8242 65.7671 12.4244C66.167 12.0244 66.167 11.3761 65.7671 10.9762Z" fill="#4D434B"/>
<path d="M54.9898 17.2817C54.5898 17.6818 54.5898 18.33 54.9898 18.7299C55.3898 19.1297 56.0381 19.1297 56.438 18.7299C56.7328 18.435 57.1247 18.2727 57.5416 18.2727C57.9586 18.2727 58.3506 18.4349 58.6453 18.7299C59.0455 19.1298 59.6936 19.1297 60.0936 18.7299C60.4935 18.3299 60.4935 17.6816 60.0936 17.2817C58.6864 15.8748 56.3969 15.8748 54.9898 17.2817Z" fill="#4D434B"/>
<path d="M52.1259 14.1271C51.726 14.5271 51.726 15.1754 52.1259 15.5753C52.5259 15.9751 53.1742 15.9751 53.5741 15.5753C55.7615 13.3876 59.3217 13.3876 61.5091 15.5753C61.9093 15.9752 62.5574 15.9751 62.9573 15.5753C63.3572 15.1752 63.3572 14.527 62.9573 14.1271C59.971 11.1409 55.1123 11.1409 52.1259 14.1271Z" fill="#4D434B"/>
<path d="M57.5416 0.227417C50.4743 0.227417 44.7249 5.9769 44.7249 13.0442C44.7249 20.1115 50.4743 25.8611 57.5416 25.8611C64.609 25.8611 70.3586 20.1115 70.3586 13.0442C70.3586 5.9769 64.609 0.227417 57.5416 0.227417ZM57.5416 23.8131C51.6037 23.8131 46.7729 18.9822 46.7729 13.0442C46.7729 7.10631 51.6037 2.27544 57.5416 2.27544C63.4797 2.27544 68.3106 7.10631 68.3106 13.0442C68.3106 18.9822 63.4797 23.8131 57.5416 23.8131Z" fill="#4D434B"/>
</svg>
