<svg width="67" height="74" viewBox="0 0 67 74" fill="none" xmlns="http://www.w3.org/2000/svg">
<path d="M53.8699 10.7942C51.9888 10.7942 50.1461 11.216 48.4664 12.0235C46.5284 5.27341 40.3105 0.512939 33.1645 0.512939C26.0855 0.512939 19.8756 5.22639 17.8971 11.9051C16.2858 11.1754 14.529 10.7943 12.7446 10.7943C5.855 10.7943 0.25 16.3993 0.25 23.2889C0.25 30.1786 5.855 35.7836 12.7446 35.7836C12.7656 35.7836 12.7865 35.7827 12.8073 35.7826L15.1039 65.6386C15.1462 66.1891 15.6199 66.6275 16.1723 66.6275H20.9423C21.4242 68.5921 23.1993 70.0546 25.3106 70.0546C26.7658 70.0546 29.8659 68.5849 31.9456 67.5062C31.5451 68.7681 30.6065 70.3835 28.4131 71.4469C27.9219 71.6851 27.6862 72.2749 27.8775 72.7861C28.0956 73.3686 28.7878 73.6458 29.3478 73.3743C31.3687 72.3944 32.5809 71.0463 33.3073 69.7413C34.0336 71.0462 35.2457 72.3944 37.2667 73.3743C37.8277 73.6462 38.5177 73.368 38.7368 72.7861C38.9294 72.2755 38.6917 71.6848 38.2013 71.4469C36.0079 70.3834 35.0691 68.7681 34.6688 67.506C36.7485 68.5849 39.8486 70.0546 41.3038 70.0546C43.4149 70.0546 45.1901 68.5923 45.672 66.6275H50.4421C50.9949 66.6275 51.4682 66.1891 51.5105 65.6386L53.0536 45.579C53.0991 44.9893 52.6577 44.4745 52.068 44.4291C51.4754 44.3835 50.9637 44.825 50.9181 45.4148L50.4177 51.9195H41.4259L43.5027 39.4581C43.5999 38.8748 43.2057 38.3228 42.6224 38.2256C42.0368 38.1279 41.4872 38.5226 41.3898 39.1059L39.2542 51.9195H34.3782V36.9973C34.3782 36.4059 33.8988 35.9264 33.3073 35.9264C32.7157 35.9264 32.2363 36.4059 32.2363 36.9973V51.9195H27.3604L25.2247 39.1059C25.1273 38.5226 24.5768 38.1287 23.9921 38.2256C23.4088 38.3228 23.0145 38.8746 23.1118 39.4581L25.1888 51.9195H16.197L14.9404 35.5862C18.0352 35.0272 20.8607 33.3057 22.7664 30.7476C23.1198 30.2733 23.0217 29.6024 22.5473 29.2489C22.0729 28.8955 21.4021 28.9933 21.0487 29.468C19.0727 32.1204 16.046 33.6416 12.7446 33.6416C7.036 33.6416 2.39196 28.9974 2.39196 23.2889C2.39196 17.5805 7.03629 12.9363 12.7446 12.9363C14.6188 12.9363 16.4558 13.4434 18.0569 14.4027C18.6815 14.7771 19.5137 14.4074 19.6572 13.6956C20.9469 7.29823 26.6274 2.6549 33.1643 2.6549C39.7742 2.6549 45.4668 7.36051 46.7 13.8437C46.8389 14.5732 47.6983 14.947 48.3268 14.5474C49.9849 13.4934 51.9017 12.9363 53.8698 12.9363C59.5784 12.9363 64.2224 17.5805 64.2224 23.2889C64.2224 28.9974 59.5782 33.6416 53.8698 33.6416C50.7302 33.6416 47.7956 32.2391 45.8185 29.7939C45.4467 29.3342 44.7728 29.2625 44.3123 29.6344C43.8524 30.0063 43.7811 30.6808 44.153 31.1405C46.0704 33.5119 48.7345 35.0696 51.6737 35.5902L51.2914 40.561C51.246 41.1507 51.6873 41.6655 52.2771 41.7109C52.305 41.7131 52.3328 41.7141 52.3603 41.7141C52.9145 41.7141 53.3838 41.2869 53.427 40.7252L53.8071 35.7824C53.8279 35.7826 53.8488 35.7833 53.8698 35.7833C60.7594 35.7833 66.3644 30.1783 66.3644 23.2887C66.3644 16.3991 60.7597 10.7942 53.8699 10.7942ZM25.3108 67.9125C24.0116 67.9125 22.9546 66.8555 22.9546 65.5563C22.9546 64.2572 24.0116 63.2002 25.3108 63.2002C26.1829 63.2002 28.7906 64.3856 31.049 65.5563C28.7908 66.7271 26.1831 67.9125 25.3108 67.9125ZM41.3039 67.9125C40.4317 67.9125 37.8239 66.7269 35.5657 65.5563C37.8238 64.3857 40.4316 63.2002 41.3039 63.2002C42.603 63.2002 43.6601 64.2572 43.6601 65.5563C43.6599 66.8556 42.603 67.9125 41.3039 67.9125ZM50.2528 54.0613L49.451 64.4854H45.672C45.1902 62.5207 43.4151 61.0582 41.3038 61.0582C39.4721 61.0582 35.0349 63.386 33.3071 64.3322C31.5794 63.3862 27.1422 61.0582 25.3106 61.0582C23.1994 61.0582 21.4243 62.5205 20.9423 64.4854H17.1635L16.3617 54.0613H50.2528Z" fill="#4D434B"/>
<path d="M42.434 28.086C42.0998 27.5984 41.4335 27.4738 40.9452 27.8084C38.6495 29.3825 35.959 30.2145 33.1643 30.2145C31.0386 30.2145 29.0008 29.7435 27.1071 28.8146C26.5761 28.5541 25.9345 28.7735 25.674 29.3045C25.4135 29.8355 25.6328 30.4771 26.164 30.7378C28.3538 31.8119 30.709 32.3564 33.1645 32.3564C36.3932 32.3564 39.5026 31.3947 42.1566 29.575C42.6442 29.2405 42.7687 28.574 42.434 28.086Z" fill="#4D434B"/>
</svg>
