<svg width="23" height="24" viewBox="0 0 23 24" fill="none" xmlns="http://www.w3.org/2000/svg">
<path fill-rule="evenodd" clip-rule="evenodd" d="M17.198 23.5082C20.3977 23.5082 23 20.9058 23 17.7063V6.31018C23 3.11095 20.3977 0.508179 17.198 0.508179L5.80196 0.508179C2.60282 0.508179 0 3.11095 0 6.31018L0 17.7063C0 20.9058 2.60282 23.5082 5.80196 23.5082H17.198ZM6.08492 3.0109H17.481C19.3004 3.0109 20.7803 4.4908 20.7803 6.3098V17.7059C20.7803 19.5253 19.3 21.0052 17.481 21.0052H6.08492C4.26597 21.0052 2.78606 19.5249 2.78606 17.7059V6.3098C2.78606 4.4908 4.26597 3.0109 6.08492 3.0109ZM5.85957 12.0078C5.85957 15.2743 8.5169 17.9317 11.783 17.9317C15.049 17.9317 17.7068 15.2739 17.7068 12.0078C17.7068 8.74178 15.0495 6.08441 11.783 6.08441C8.5169 6.08441 5.85957 8.74178 5.85957 12.0078ZM16.4953 5.90761C16.4953 6.6804 17.124 7.30913 17.8972 7.30913C18.6699 7.30913 19.2987 6.6804 19.2987 5.90761C19.2987 5.13491 18.6699 4.50608 17.8972 4.50608C17.124 4.50608 16.4953 5.13491 16.4953 5.90761ZM8.36277 12.0075C8.36277 10.1221 9.89804 8.58766 11.7835 8.58766C13.6693 8.58766 15.2037 10.1225 15.2037 12.0075C15.2037 13.8938 13.6697 15.4287 11.7835 15.4287C9.89804 15.4287 8.36277 13.8938 8.36277 12.0075Z" fill="white"/>
</svg>
