<svg width="64" height="76" viewBox="0 0 64 76" fill="none" xmlns="http://www.w3.org/2000/svg">
<path d="M7.21791 11.5885C6.60794 11.5885 6.11353 12.0829 6.11353 12.6929V15.6194C6.11353 16.2294 6.6078 16.7238 7.21791 16.7238C7.82787 16.7238 8.32229 16.2294 8.32229 15.6194V12.6929C8.32229 12.0831 7.82787 11.5885 7.21791 11.5885Z" fill="#4D434B"/>
<path d="M7.21791 19.468C6.60794 19.468 6.11353 19.9624 6.11353 20.5724V23.4989C6.11353 24.1089 6.6078 24.6033 7.21791 24.6033C7.82787 24.6033 8.32229 24.1089 8.32229 23.4989V20.5724C8.32229 19.9626 7.82787 19.468 7.21791 19.468Z" fill="#4D434B"/>
<path d="M12.6204 16.9916H9.69386C9.0839 16.9916 8.58948 17.486 8.58948 18.096C8.58948 18.7059 9.0839 19.2003 9.69386 19.2003H12.6204C13.2304 19.2003 13.7248 18.7059 13.7248 18.096C13.7248 17.4861 13.2304 16.9916 12.6204 16.9916Z" fill="#4D434B"/>
<path d="M4.74185 16.9916H1.81532C1.20536 16.9916 0.710938 17.486 0.710938 18.096C0.710938 18.7059 1.20536 19.2003 1.81532 19.2003H4.74185C5.35181 19.2003 5.84623 18.7059 5.84623 18.096C5.84623 17.4861 5.35181 16.9916 4.74185 16.9916Z" fill="#4D434B"/>
<path d="M63.0087 43.4381L55.5009 35.6545C55.5009 35.6545 55.5009 35.6545 55.5008 35.6545L55.4995 35.6531C55.4986 35.6522 55.4976 35.6516 55.4967 35.6507C55.3815 35.5318 55.2388 35.4379 55.0757 35.3797L48.5859 33.065C48.0114 32.8599 47.3797 33.1597 47.1749 33.734C46.9699 34.3084 47.2696 34.9403 47.8439 35.1451L51.4171 36.4196L33.1121 42.948L14.8071 36.4196L18.4839 35.1082C19.0583 34.9033 19.3579 34.2715 19.153 33.6971C18.9481 33.1228 18.3163 32.8233 17.7419 33.0281L11.1486 35.3797C10.9857 35.4379 10.843 35.532 10.7276 35.6507C10.7267 35.6516 10.7257 35.6522 10.7248 35.6531L10.7235 35.6545H10.7233L3.2156 43.4381C2.95505 43.7082 2.84957 44.0919 2.9352 44.457C3.02084 44.8222 3.28607 45.1191 3.63941 45.245L16.8587 49.9598C16.9814 50.0036 17.1066 50.0243 17.2297 50.0243C17.6836 50.0243 18.1088 49.7424 18.2699 49.2908C18.4749 48.7164 18.1752 48.0846 17.6008 47.8797L5.99348 43.7398L11.8198 37.6996L31.129 44.5863L25.3026 50.6265L21.5565 49.2905C20.982 49.0854 20.3503 49.3852 20.1454 49.9595C19.9405 50.5339 20.2401 51.1657 20.8145 51.3706L25.2319 52.946C25.6408 53.0921 26.0967 52.9847 26.3977 52.6726L33.1122 45.7115L39.8268 52.6726C40.0384 52.8922 40.3272 53.0102 40.6217 53.0102C40.746 53.0102 40.8713 52.9892 40.9924 52.9459L62.5849 45.2448C62.9381 45.1189 63.2033 44.822 63.2891 44.4569C63.3749 44.0917 63.2692 43.7082 63.0087 43.4381ZM40.9217 50.6262L35.0953 44.586L54.4044 37.6993L60.2308 43.7395L40.9217 50.6262Z" fill="#4D434B"/>
<path d="M45.7238 69.9346C45.5189 69.3604 44.8871 69.0609 44.3126 69.2656L33.1109 73.2608L12.6227 65.9535V50.8895C12.6227 50.2796 12.1283 49.7852 11.5183 49.7852C10.9084 49.7852 10.4139 50.2796 10.4139 50.8895V66.7321C10.4139 67.1991 10.7076 67.6154 11.1472 67.7723L32.7398 75.4734C32.8599 75.5163 32.9853 75.5376 33.1108 75.5376C33.2364 75.5376 33.3619 75.5162 33.4819 75.4734L45.0547 71.346C45.6291 71.141 45.9287 70.5091 45.7238 69.9346Z" fill="#4D434B"/>
<path d="M54.7025 49.7852C54.0926 49.7852 53.5981 50.2796 53.5981 50.8895V65.9536L48.5658 67.7485C47.9915 67.9533 47.6918 68.5851 47.8968 69.1595C48.0579 69.6115 48.4831 69.893 48.937 69.893C49.0601 69.893 49.1854 69.8723 49.3081 69.8286L55.0737 67.7723C55.5134 67.6154 55.8069 67.1991 55.8069 66.7321V50.8895C55.8069 50.2796 55.3125 49.7852 54.7025 49.7852Z" fill="#4D434B"/>
<path d="M33.113 49.7264C32.5031 49.7264 32.0087 50.2209 32.0087 50.8308V69.6041C32.0087 70.2141 32.5031 70.7085 33.113 70.7085C33.723 70.7085 34.2174 70.2141 34.2174 69.6041V50.8308C34.2174 50.2209 33.723 49.7264 33.113 49.7264Z" fill="#4D434B"/>
<path d="M56.7551 13.3718L54.6612 12.9472C53.0291 12.6162 51.7606 11.348 51.4297 9.71578L51.0052 7.62183C50.811 6.66436 49.993 5.99561 49.016 5.99561C48.039 5.99561 47.221 6.66436 47.0268 7.62198L46.6023 9.71578C46.2714 11.3478 45.003 12.6163 43.3708 12.9472L41.2769 13.3718C40.3192 13.5658 39.6506 14.3838 39.6506 15.3608C39.6506 16.338 40.3192 17.156 41.2769 17.35L43.3708 17.7745C45.0029 18.1054 46.2714 19.3738 46.6023 21.006L47.0268 23.0999C47.221 24.0574 48.039 24.7262 49.016 24.7262C49.993 24.7262 50.811 24.0574 51.0052 23.0998L51.4297 21.006C51.7606 19.3739 53.029 18.1054 54.6612 17.7745L56.7551 17.35C57.7127 17.156 58.3813 16.338 58.3813 15.3608C58.3813 14.3838 57.7126 13.5659 56.7551 13.3718ZM54.2222 15.6098C51.7184 16.1174 49.7726 18.0633 49.2649 20.5672L49.016 21.795L48.7671 20.5672C48.2596 18.0633 46.3137 16.1175 43.8098 15.6098L42.582 15.361L43.8098 15.1121C46.3135 14.6044 48.2594 12.6585 48.7671 10.1548L49.016 8.92695L49.2649 10.1548C49.7724 12.6584 51.7183 14.6044 54.2222 15.1121L55.45 15.361L54.2222 15.6098Z" fill="#4D434B"/>
<path d="M34.5902 10.3023L31.9032 9.75752C29.6852 9.30789 27.9614 7.58406 27.5118 5.36611L26.967 2.67913C26.7476 1.59765 25.8241 0.842529 24.7209 0.842529C23.6177 0.842529 22.6941 1.59765 22.4749 2.67884L21.9302 5.36582C21.4806 7.58377 19.7567 9.3076 17.5388 9.75723L14.8518 10.302C13.7706 10.5212 13.0155 11.4447 13.0155 12.5479C13.0155 13.6512 13.7706 14.5748 14.8518 14.794L17.5388 15.3388C19.7567 15.7884 21.4806 17.5123 21.9302 19.7302L22.4749 22.4172C22.6942 23.4984 23.6177 24.2535 24.7209 24.2535C25.8241 24.2535 26.7477 23.4984 26.9669 22.4172L27.5116 19.7302C27.9614 17.5123 29.6851 15.7884 31.903 15.3388L34.59 14.794C35.6712 14.5748 36.4263 13.6513 36.4263 12.5481C36.4263 11.4449 35.6713 10.5214 34.5902 10.3023ZM34.151 12.6293L31.464 13.1741C28.3744 13.8005 25.9732 16.2017 25.3469 19.2912L24.8022 21.9782C24.7924 22.0266 24.7887 22.0447 24.7209 22.0447C24.6531 22.0447 24.6493 22.0266 24.6396 21.9782L24.0949 19.2912C23.4685 16.2016 21.0673 13.8004 17.9778 13.1741L15.2908 12.6293C15.2424 12.6196 15.2243 12.6159 15.2243 12.5481C15.2243 12.4802 15.2425 12.4765 15.2908 12.4668L17.9778 11.9221C21.0674 11.2956 23.4686 8.89444 24.0949 5.80495L24.6396 3.11796C24.6494 3.06953 24.6531 3.05144 24.7209 3.05144C24.7887 3.05144 24.7925 3.06953 24.8022 3.11796L25.3469 5.80495C25.9734 8.89459 28.3746 11.2958 31.464 11.9221L34.151 12.4668C34.1995 12.4766 34.2176 12.4802 34.2176 12.5481C34.2176 12.6159 34.1995 12.6197 34.151 12.6293Z" fill="#4D434B"/>
<path d="M25.4677 35.8382C22.5422 28.6372 15.9923 22.2553 15.7151 21.9872C15.2765 21.5634 14.5777 21.5752 14.1538 22.0136C13.7298 22.452 13.7415 23.1509 14.1797 23.575C14.2444 23.6376 20.6746 29.9079 23.4215 36.6694C23.5958 37.0983 24.009 37.3585 24.4451 37.3585C24.5835 37.3585 24.7243 37.3322 24.8603 37.2771C25.4253 37.0473 25.6974 36.403 25.4677 35.8382Z" fill="#4D434B"/>
<path d="M29.4515 22.1185C28.8416 22.1185 28.3472 22.6129 28.3472 23.2229V33.3826C28.3472 33.9926 28.8416 34.487 29.4515 34.487C30.0615 34.487 30.5559 33.9926 30.5559 33.3826V23.2229C30.5558 22.6129 30.0614 22.1185 29.4515 22.1185Z" fill="#4D434B"/>
<path d="M48.5506 26.0094C48.0769 25.6251 47.3813 25.6975 46.9973 26.1713C44.254 29.5533 42.2386 32.8058 41.0066 35.8381C40.7769 36.4031 41.0492 37.0473 41.614 37.2768C41.7503 37.332 41.8909 37.3582 42.0292 37.3582C42.4653 37.3582 42.8786 37.0983 43.0528 36.6692C44.485 33.1441 46.921 29.7711 48.7126 27.5625C49.0967 27.0891 49.0243 26.3937 48.5506 26.0094Z" fill="#4D434B"/>
<path d="M38.9426 18.5935C38.3376 18.5147 37.7838 18.9416 37.7053 19.5464L35.9267 33.24C35.8482 33.8447 36.2748 34.3988 36.8796 34.4773C36.9279 34.4834 36.9758 34.4866 37.0232 34.4866C37.5698 34.4866 38.0448 34.0809 38.1169 33.5243L39.8956 19.8308C39.9742 19.226 39.5475 18.672 38.9426 18.5935Z" fill="#4D434B"/>
</svg>
