<svg width="31" height="31" viewBox="0 0 31 31" fill="none" xmlns="http://www.w3.org/2000/svg">
<circle cx="15.6193" cy="15.6953" r="14.5" stroke="white"/>
<mask id="path-2-outside-1" maskUnits="userSpaceOnUse" x="8.31946" y="9.69531" width="15" height="12" fill="black">
<rect fill="white" x="8.31946" y="9.69531" width="15" height="12"/>
<path fill-rule="evenodd" clip-rule="evenodd" d="M16.6898 20.4325C16.6901 20.5779 16.8082 20.6956 16.9536 20.6953C17.0233 20.6953 17.0901 20.6677 17.1394 20.6185L21.8721 15.8858C21.9234 15.8378 21.9555 15.7694 21.9555 15.6936C21.9555 15.6148 21.9209 15.5441 21.866 15.4958L17.1394 10.7692C17.0374 10.6707 16.8757 10.6707 16.7737 10.7692C16.6691 10.8702 16.6662 11.0369 16.7672 11.1414L21.0566 15.4303H9.58272C9.43733 15.4303 9.31946 15.5482 9.31946 15.6936C9.31946 15.839 9.43733 15.9568 9.58272 15.9568H21.0566L16.7672 20.2457C16.7176 20.2952 16.6897 20.3624 16.6898 20.4325Z"/>
</mask>
<path fill-rule="evenodd" clip-rule="evenodd" d="M16.6898 20.4325C16.6901 20.5779 16.8082 20.6956 16.9536 20.6953C17.0233 20.6953 17.0901 20.6677 17.1394 20.6185L21.8721 15.8858C21.9234 15.8378 21.9555 15.7694 21.9555 15.6936C21.9555 15.6148 21.9209 15.5441 21.866 15.4958L17.1394 10.7692C17.0374 10.6707 16.8757 10.6707 16.7737 10.7692C16.6691 10.8702 16.6662 11.0369 16.7672 11.1414L21.0566 15.4303H9.58272C9.43733 15.4303 9.31946 15.5482 9.31946 15.6936C9.31946 15.839 9.43733 15.9568 9.58272 15.9568H21.0566L16.7672 20.2457C16.7176 20.2952 16.6897 20.3624 16.6898 20.4325Z" fill="white"/>
<path d="M16.9536 20.6953V20.2953L16.9528 20.2953L16.9536 20.6953ZM16.6898 20.4325L16.2898 20.4332L16.2898 20.4333L16.6898 20.4325ZM17.1394 20.6185L17.422 20.9016L17.4223 20.9013L17.1394 20.6185ZM21.8721 15.8858L21.5986 15.5936L21.5892 15.6029L21.8721 15.8858ZM21.9555 15.6936L22.3555 15.6936V15.6936H21.9555ZM21.866 15.4958L21.5832 15.7787L21.5922 15.7877L21.6019 15.7962L21.866 15.4958ZM17.1394 10.7692L17.4223 10.4863L17.4173 10.4815L17.1394 10.7692ZM16.7737 10.7692L16.4958 10.4815L16.4957 10.4815L16.7737 10.7692ZM16.7672 11.1414L16.4795 11.4194L16.4844 11.4243L16.7672 11.1414ZM21.0566 15.4303V15.8303H22.0223L21.3394 15.1474L21.0566 15.4303ZM21.0566 15.9568L21.3394 16.2397L22.0224 15.5568H21.0566V15.9568ZM16.7672 20.2457L17.0497 20.5289L17.05 20.5285L16.7672 20.2457ZM16.9528 20.2953C17.0284 20.2952 17.0897 20.3563 17.0898 20.4318L16.2898 20.4333C16.2905 20.7995 16.5879 21.096 16.9543 21.0953L16.9528 20.2953ZM16.8568 20.3353C16.8826 20.3097 16.9174 20.2953 16.9536 20.2953V21.0953C17.1292 21.0953 17.2976 21.0257 17.422 20.9016L16.8568 20.3353ZM21.5892 15.6029L16.8566 20.3356L17.4223 20.9013L22.1549 16.1686L21.5892 15.6029ZM21.5555 15.6935C21.5555 15.6541 21.5727 15.6182 21.5988 15.5937L22.1454 16.1778C22.2741 16.0574 22.3555 15.8847 22.3555 15.6936L21.5555 15.6935ZM21.6019 15.7962C21.574 15.7717 21.5555 15.7346 21.5555 15.6936H22.3555C22.3555 15.495 22.2677 15.3164 22.1302 15.1954L21.6019 15.7962ZM16.8566 11.052L21.5832 15.7787L22.1489 15.213L17.4223 10.4864L16.8566 11.052ZM17.0515 11.0569C16.9986 11.1081 16.9145 11.1081 16.8615 11.0569L17.4173 10.4815C17.1603 10.2332 16.7528 10.2333 16.4958 10.4815L17.0515 11.0569ZM17.0549 10.8635C17.1074 10.9179 17.1058 11.0045 17.0516 11.0569L16.4957 10.4815C16.2324 10.736 16.2249 11.1558 16.4795 11.4194L17.0549 10.8635ZM21.3394 15.1474L17.05 10.8586L16.4844 11.4243L20.7737 15.7132L21.3394 15.1474ZM9.58272 15.8303H21.0566V15.0303H9.58272V15.8303ZM9.71946 15.6936C9.71946 15.7691 9.65824 15.8303 9.58272 15.8303V15.0303C9.21641 15.0303 8.91946 15.3273 8.91946 15.6936H9.71946ZM9.58272 15.5568C9.65819 15.5568 9.71946 15.618 9.71946 15.6936H8.91946C8.91946 16.0599 9.21646 16.3568 9.58272 16.3568V15.5568ZM21.0566 15.5568H9.58272V16.3568H21.0566V15.5568ZM17.05 20.5285L21.3394 16.2397L20.7738 15.6739L16.4844 19.9628L17.05 20.5285ZM17.0898 20.4318C17.0899 20.4682 17.0754 20.5032 17.0497 20.5289L16.4847 19.9625C16.3597 20.0872 16.2895 20.2566 16.2898 20.4332L17.0898 20.4318Z" fill="white" mask="url(#path-2-outside-1)"/>
</svg>
