<svg width="30" height="30" viewBox="0 0 30 30" fill="none" xmlns="http://www.w3.org/2000/svg">
<path d="M14.5625 0.850098C6.53275 0.850098 0 7.38285 0 15.4127C0 23.4425 6.53275 29.9751 14.5625 29.9751C22.5923 29.9751 29.125 23.4424 29.125 15.4126C29.125 7.38276 22.5923 0.850098 14.5625 0.850098ZM14.5625 27.525C7.88373 27.525 2.45009 22.0915 2.45009 15.4127C2.45009 8.73391 7.88373 3.30018 14.5625 3.30018C21.2413 3.30018 26.6749 8.73382 26.6749 15.4127C26.6749 22.0915 21.2413 27.525 14.5625 27.525Z" fill="#FDFDFD"/>
<path d="M14.5625 6.31787C11.6567 6.31787 9.2926 8.68196 9.2926 11.5878C9.2926 12.2643 9.8411 12.8128 10.5176 12.8128C11.1942 12.8128 11.7427 12.2643 11.7427 11.5878C11.7427 10.0329 13.0077 8.76796 14.5625 8.76796C16.1173 8.76796 17.3823 10.0329 17.3823 11.5878C17.3823 13.1426 16.1173 14.4076 14.5625 14.4076C13.8859 14.4076 13.3375 14.9561 13.3375 15.6326V18.4024C13.3375 19.079 13.8859 19.6275 14.5625 19.6275C15.239 19.6275 15.7875 19.079 15.7875 18.4024V16.7139C18.1046 16.1603 19.8324 14.0719 19.8324 11.5877C19.8324 8.68196 17.4683 6.31787 14.5625 6.31787Z" fill="#FDFDFD"/>
<path d="M14.5625 24.2809C15.5097 24.2809 16.2775 23.5131 16.2775 22.5659C16.2775 21.6188 15.5097 20.851 14.5625 20.851C13.6154 20.851 12.8475 21.6188 12.8475 22.5659C12.8475 23.5131 13.6154 24.2809 14.5625 24.2809Z" fill="#FDFDFD"/>
</svg>
