<svg width="23" height="19" viewBox="0 0 23 19" fill="none" xmlns="http://www.w3.org/2000/svg">
<path d="M22.2738 2.89158C21.4545 3.25487 20.5732 3.50058 19.6489 3.61032C20.5926 3.04494 21.3168 2.15035 21.6586 1.08264C20.7756 1.60644 19.7972 1.98643 18.7567 2.19125C17.9231 1.30347 16.7355 0.748657 15.4203 0.748657C12.8971 0.748657 10.8506 2.79514 10.8506 5.31839C10.8506 5.67656 10.8912 6.0252 10.9695 6.35986C7.17171 6.16935 3.80431 4.35018 1.55028 1.58463C1.157 2.2594 0.931396 3.04494 0.931396 3.88227C0.931396 5.46731 1.73874 6.86662 2.96424 7.68589C2.21551 7.66238 1.51041 7.45688 0.89459 7.1137C0.894249 7.13312 0.894248 7.15255 0.894248 7.17163C0.894248 9.38578 2.47009 11.2326 4.56019 11.6521C4.17714 11.757 3.77261 11.8126 3.3565 11.8126C3.06137 11.8126 2.77544 11.7843 2.49667 11.7311C3.07807 13.5462 4.76535 14.8675 6.76548 14.9046C5.20123 16.1305 3.23109 16.8608 1.08952 16.8608C0.721465 16.8608 0.356814 16.8393 0 16.7967C2.02126 18.0938 4.42387 18.85 7.00438 18.85C15.4098 18.85 20.0064 11.8869 20.0064 5.84764C20.0064 5.64964 20.002 5.45232 19.9931 5.2567C20.8867 4.6126 21.6613 3.80798 22.2738 2.89158Z" fill="white"/>
</svg>
