<svg width="183" height="20" viewBox="0 0 183 20" fill="none" xmlns="http://www.w3.org/2000/svg">
<path d="M119.645 16.3204C120.82 16.3204 121.903 16.042 122.895 15.4823C123.89 14.9226 124.688 14.1841 125.293 13.261L127.177 14.4742C126.784 15.0896 126.32 15.6464 125.783 16.1505C125.246 16.6516 124.649 17.0823 123.997 17.4369C123.344 17.7944 122.65 18.067 121.918 18.2633C121.186 18.4567 120.427 18.5534 119.645 18.5534C118.404 18.5534 117.238 18.319 116.149 17.8501C115.056 17.3812 114.102 16.7424 113.287 15.9336C112.472 15.1248 111.829 14.1783 111.356 13.094C110.884 12.0097 110.648 10.8522 110.648 9.62437C110.648 8.39358 110.884 7.23899 111.356 6.15472C111.829 5.07046 112.472 4.12393 113.287 3.31513C114.102 2.50632 115.056 1.86749 116.149 1.39862C117.241 0.929748 118.407 0.695312 119.645 0.695312C121.224 0.695312 122.677 1.06455 123.997 1.80009C125.317 2.53563 126.377 3.52026 127.177 4.74811L125.293 5.98476C124.691 5.06167 123.89 4.3232 122.895 3.76348C121.9 3.20377 120.817 2.92538 119.645 2.92538C118.714 2.92538 117.846 3.09827 117.04 3.447C116.234 3.79572 115.523 4.27338 114.911 4.87998C114.3 5.48658 113.819 6.19868 113.468 7.01627C113.116 7.83387 112.942 8.70421 112.942 9.62437C112.942 10.5445 113.116 11.4178 113.468 12.2325C113.819 13.0501 114.3 13.7621 114.911 14.3687C115.523 14.9754 116.231 15.453 117.04 15.8017C117.849 16.1446 118.717 16.3204 119.645 16.3204Z" fill="white"/>
<path d="M144.786 1.12598V18.1167H142.486V10.7378H134.024V18.1167H131.727V1.12598H134.024V8.50483H142.486V1.12598H144.786Z" fill="white"/>
<path d="M154.215 3.35897V8.50483H162.65V10.7378H154.215V15.8837H163.312V18.1167H151.891V1.12598H163.312V3.35897H154.215Z" fill="white"/>
<path d="M173.569 3.35897V9.62132H180.907V11.8543H173.569V18.1167H171.272V1.12598H182.619V3.35897H173.569Z" fill="white"/>
<path d="M28.5052 18.2226L18.8245 1.31592H15.2075L10.2834 9.98235L5.42775 1.31592H0.619263L10.2551 18.513L17.0219 6.59399L23.6802 18.2226H28.5052Z" fill="white"/>
<path d="M28.8968 7.59845L32.4407 1.4165H27.1839L26.2684 3.01116L28.8968 7.59845Z" fill="white"/>
<path d="M102.369 6.50972C101.895 5.46769 101.239 4.54508 100.418 3.77C99.5991 2.99491 98.6294 2.37438 97.5323 1.92712C96.4304 1.47753 95.2436 1.24805 94.0002 1.24805H88.5334V18.4755H94.0002C95.246 18.4755 96.4328 18.2484 97.5323 17.7965C98.627 17.3492 99.5967 16.7287 100.415 15.9536C101.237 15.1785 101.892 14.2559 102.367 13.2139C102.843 12.1671 103.084 11.0385 103.084 9.86296C103.086 8.68277 102.846 7.55644 102.369 6.50972ZM99.5873 9.86062C99.5873 10.5912 99.441 11.289 99.1508 11.933C98.8582 12.5816 98.4548 13.1577 97.9522 13.6377C97.4497 14.1201 96.8504 14.5064 96.1732 14.7898C95.5008 15.0708 94.7694 15.2113 94.0002 15.2113H92.0325V4.50762H94.0002C94.7694 4.50762 95.5008 4.65046 96.1732 4.92911C96.8527 5.21245 97.452 5.59882 97.9546 6.0812C98.4571 6.56358 98.8606 7.13728 99.1532 7.78592C99.441 8.43221 99.5873 9.13002 99.5873 9.86062Z" fill="white"/>
<path d="M50.9786 6.29184C50.4972 5.18659 49.8295 4.20778 48.999 3.38352C48.1685 2.55926 47.1823 1.89658 46.0686 1.41888C44.9479 0.938844 43.7399 0.695312 42.4752 0.695312C41.1941 0.695312 39.9766 0.938844 38.8582 1.41888C37.7422 1.89892 36.7607 2.55926 35.9373 3.38586C35.1139 4.21012 34.4532 5.18893 33.9719 6.29184C33.4882 7.40178 33.2405 8.60305 33.2405 9.85817C33.2405 11.1133 33.4859 12.3146 33.9719 13.4245C34.4532 14.5274 35.1139 15.5039 35.9373 16.3305C36.7607 17.1571 37.7446 17.8198 38.8582 18.2975C39.9766 18.7775 41.1941 19.0234 42.4752 19.0234C43.7399 19.0234 44.9503 18.7798 46.0686 18.2998C47.1823 17.8221 48.1685 17.1618 48.999 16.3352C49.8295 15.5109 50.4972 14.5321 50.9786 13.4268C51.4622 12.3169 51.7076 11.1156 51.7076 9.86051C51.7076 8.60539 51.4622 7.40413 50.9786 6.29184ZM48.0765 9.86051C48.0765 10.6333 47.9278 11.3709 47.6353 12.0523C47.3403 12.7384 46.9369 13.3449 46.4296 13.853C45.9271 14.3588 45.3278 14.7639 44.653 15.0543C43.9829 15.3423 43.2515 15.4898 42.4729 15.4898C41.6943 15.4898 40.9558 15.3423 40.2786 15.0543C39.5944 14.7616 38.9951 14.3588 38.4925 13.853C37.9876 13.3472 37.5818 12.7407 37.2869 12.0523C36.9943 11.3709 36.8457 10.6333 36.8457 9.86051C36.8457 9.09011 36.9943 8.35718 37.2845 7.68278C37.5794 7.00136 37.9876 6.39722 38.4925 5.89142C38.9951 5.38563 39.5967 4.97584 40.2833 4.67611C40.9605 4.38106 41.699 4.2312 42.4729 4.2312C43.2468 4.2312 43.9782 4.38106 44.6459 4.67611C45.323 4.97584 45.9223 5.38329 46.4272 5.89142C46.9345 6.4019 47.338 7.0037 47.6329 7.68278C47.9278 8.35718 48.0765 9.08777 48.0765 9.86051Z" fill="white"/>
<path d="M75.2807 15.1364V1.16846H71.4702V18.3959H84.4376V15.1364H75.2807Z" fill="white"/>
<path d="M64.0616 11.6473C64.6845 11.3288 65.2342 10.9167 65.6943 10.4226C66.1497 9.93089 66.5154 9.36421 66.782 8.73431C67.0533 8.09504 67.1902 7.40894 67.1902 6.69473C67.1902 5.92902 67.0297 5.19374 66.7159 4.5053C66.4045 3.82388 65.9727 3.21973 65.4371 2.70925C64.8992 2.20112 64.2621 1.79601 63.5425 1.50097C62.8158 1.20358 62.0396 1.05371 61.2327 1.05371H52.0569L54.001 4.38821H61.2327C61.5724 4.38821 61.8886 4.44675 62.1741 4.56384C62.4619 4.68326 62.7167 4.84718 62.9267 5.05324C63.1367 5.25931 63.3042 5.50518 63.4246 5.78383C63.5449 6.06483 63.6039 6.37159 63.6039 6.69708C63.6039 7.02256 63.5425 7.32932 63.4246 7.61032C63.3042 7.89131 63.1367 8.13719 62.9267 8.34091C62.712 8.54932 62.4595 8.71323 62.1717 8.83031C62.0183 8.89354 61.8367 8.93803 61.5984 8.97081L60.8056 9.07853H56.6554L62.1292 18.4732L62.1552 18.52H66.4588L62.6884 12.1718L63.0282 12.0688C63.4057 11.947 63.7431 11.8112 64.0616 11.6473Z" fill="white"/>
</svg>
